<mxfile host="app.diagrams.net" modified="2023-09-12T03:13:19.073Z" agent="Mozilla/5.0 (Windows NT 10.0; Win64; x64) AppleWebKit/537.36 (KHTML, like Gecko) Chrome/116.0.0.0 Safari/537.36" version="21.6.6" etag="7ukoWziwhqQPlptotP1A" type="github">
  <diagram name="第 1 页" id="PGdhGIjs1Gjq6VzOSGOk">
    <mxGraphModel>
      <root>
        <mxCell id="0" />
        <mxCell id="1" parent="0" />
      </root>
    </mxGraphModel>
  </diagram>
</mxfile>
